<?xml version="1.0" encoding="UTF-8" standalone="no"?>
<svg
   width="1000"
   height="1330"
   viewBox="0 0 1000 1330"
   fill="none"
   version="1.1"
   id="svg26"
   sodipodi:docname="62b0e7c4e63aa2b80006a1d4_Ebook Cover 3.svg"
   inkscape:version="1.3.2 (091e20e, 2023-11-25, custom)"
   xmlns:inkscape="http://www.inkscape.org/namespaces/inkscape"
   xmlns:sodipodi="http://sodipodi.sourceforge.net/DTD/sodipodi-0.dtd"
   xmlns="http://www.w3.org/2000/svg"
   xmlns:svg="http://www.w3.org/2000/svg">
  <sodipodi:namedview
     id="namedview26"
     pagecolor="#ffffff"
     bordercolor="#000000"
     borderopacity="0.25"
     inkscape:showpageshadow="2"
     inkscape:pageopacity="0.0"
     inkscape:pagecheckerboard="0"
     inkscape:deskcolor="#d1d1d1"
     inkscape:zoom="1.4233083"
     inkscape:cx="499.89171"
     inkscape:cy="665"
     inkscape:window-width="3840"
     inkscape:window-height="2089"
     inkscape:window-x="-8"
     inkscape:window-y="-8"
     inkscape:window-maximized="1"
     inkscape:current-layer="g26" />
  <g
     clip-path="url(#clip0_1_106)"
     id="g19">
    <rect
       width="1007"
       height="610"
       fill="#F5F6F7"
       id="rect1" />
    <rect
       width="1007"
       height="610"
       fill="url(#paint0_radial_1_106)"
       id="rect2" />
    <rect
       width="1007"
       height="610"
       fill="url(#paint1_radial_1_106)"
       fill-opacity="0.2"
       id="rect3" />
    <rect
       x="198"
       y="711"
       width="577"
       height="482"
       fill="#F5F6F7"
       id="rect4" />
    <rect
       x="198"
       y="711"
       width="577"
       height="482"
       fill="url(#paint2_radial_1_106)"
       id="rect5" />
    <rect
       x="198"
       y="711"
       width="577"
       height="482"
       fill="url(#paint3_radial_1_106)"
       fill-opacity="0.6"
       id="rect6" />
    <path
       fill-rule="evenodd"
       clip-rule="evenodd"
       d="M0 574H1007V1330H0V574ZM555.718 826.73C555.702 826.73 555.687 826.728 555.671 826.723C555.648 826.715 555.626 826.702 555.608 826.684C555.579 826.655 555.562 826.615 555.562 826.574C553.304 822.736 550.07 819.561 546.187 817.372L408.687 740.166C404.962 738.09 400.766 737 396.5 737C392.233 737 388.038 738.09 384.312 740.166L246.813 817.372C242.93 819.561 239.696 822.736 237.438 826.574C237.438 826.615 237.421 826.655 237.392 826.684C237.363 826.714 237.323 826.73 237.281 826.73V827.042C235.121 830.676 233.987 834.826 234 839.052V992.839C234.008 997.285 235.198 1001.65 237.449 1005.49C239.7 1009.32 242.932 1012.49 246.813 1014.67L384.312 1091.88C387.774 1093.77 391.623 1094.83 395.562 1095H397.75C401.586 1094.81 405.328 1093.74 408.687 1091.88L449 1069.25V1115.29C449 1122.11 451.708 1128.65 456.529 1133.47C461.349 1138.29 467.887 1141 474.704 1141H546.515C549.311 1141.02 552.087 1140.53 554.708 1139.55L555.993 1139.23C559.25 1137.92 562.202 1135.95 564.669 1133.45L699.133 998.935L704.595 1021.27L645.476 1080.41C643.062 1082.85 641.709 1086.14 641.709 1089.57C641.709 1093 643.062 1096.3 645.476 1098.73C647.932 1101.11 651.216 1102.44 654.633 1102.44C658.05 1102.44 661.333 1101.11 663.79 1098.73L728.05 1034.45C729.557 1032.84 730.651 1030.89 731.239 1028.76C731.826 1026.63 731.89 1024.39 731.424 1022.24L720.339 977.883L757.449 940.599C759.845 938.221 761.745 935.392 763.041 932.275C764.337 929.158 765.003 925.815 765 922.439C765.003 919.063 764.337 915.72 763.041 912.603C761.745 909.486 759.845 906.657 757.449 904.279L685.639 832.444C680.799 827.674 674.279 825 667.485 825C660.691 825 654.171 827.674 649.331 832.444L559 922.807V839.052C559.023 834.726 557.89 830.473 555.718 826.73ZM534 947.815V853.089L410.406 923.276L409.156 1063.03L449.166 1040.53C449.364 1038.74 449.738 1036.98 450.285 1035.25L450.767 1033.97C452.082 1030.71 454.05 1027.76 456.551 1025.29L534 947.815ZM397.906 901.596L272.125 831.721L396.5 761.846L521.031 831.721L397.906 901.596ZM634.23 883.87L706.041 955.705L739.296 922.439L667.485 850.603L634.23 883.87Z"
       fill="#20252B"
       id="path18" />
  </g>
  <g
     id="g26"
     style="display:inline">
    <g
       id="g20"
       inkscape:label="diamonds"
       transform="matrix(0.40121961,0,0,0.40121961,-202.97577,-147.18248)"
       style="display:inline;fill:#1a1a1a">
      <path
         style="display:inline;fill:#1a1a1a;fill-opacity:1"
         d="M 778.49355,531.08462 838.85536,636.6557 777.99674,740.73636 717.88333,636.15889 Z"
         id="path4"
         inkscape:label="inner diamond" />
      <path
         id="path5"
         style="display:inline;fill:#1a1a1a"
         d="M 777.92128,470.07944 682.03711,636.19336 778.3604,802.88709 874.52634,636.46178 Z M 777.80953,501.1215 855.95878,636.41071 777.9635,771.24549 700.30469,636.36914 Z"
         sodipodi:nodetypes="cccccccccc"
         inkscape:label="outer diamond" />
    </g>
    <text
       xml:space="preserve"
       style="font-style:normal;font-variant:normal;font-weight:normal;font-stretch:normal;font-size:119.795px;font-family:'Night At The Opera NF';-inkscape-font-specification:'Night At The Opera NF';display:inline;fill:#000000;stroke:#000000;stroke-width:3.7;stroke-dasharray:none;stroke-opacity:1"
       x="169.48932"
       y="154.66948"
       id="text21"
       inkscape:label="oligarchy"><tspan
         id="tspan21"
         x="169.48932"
         y="154.66948"
         sodipodi:role="line"
         style="stroke-width:3.7;stroke-dasharray:none">Oligarchy</tspan></text>
    <text
       xml:space="preserve"
       id="text26"
       style="font-size:85.3333px;white-space:pre;shape-inside:url(#rect27);shape-padding:0.702588;display:inline;fill:#000000"
       transform="translate(-24.716087,-20.374359)"
       inkscape:label="title"><tspan
         x="95.552734"
         y="399.35422"
         id="tspan2"><tspan
           style="font-weight:bold;font-family:Inter;-inkscape-font-specification:'Inter Bold'"
           id="tspan1">Minecraft </tspan></tspan><tspan
         x="95.552734"
         y="507.14206"
         id="tspan5"><tspan
           style="font-weight:bold;font-family:Inter;-inkscape-font-specification:'Inter Bold'"
           id="tspan4">Night</tspan></tspan></text>
  </g>
  <defs
     id="defs26">
    <radialGradient
       id="paint0_radial_1_106"
       cx="0"
       cy="0"
       r="1"
       gradientUnits="userSpaceOnUse"
       gradientTransform="translate(-106 489.147) rotate(2.25551) scale(1509.17 523.573)">
      <stop
         stop-color="#EF98DC"
         stop-opacity="0.19"
         id="stop19" />
      <stop
         offset="1"
         stop-color="white"
         stop-opacity="0"
         id="stop20" />
    </radialGradient>
    <radialGradient
       id="paint1_radial_1_106"
       cx="0"
       cy="0"
       r="1"
       gradientUnits="userSpaceOnUse"
       gradientTransform="translate(1007 44.2595) rotate(162.272) scale(1418.88 664.213)">
      <stop
         stop-color="#CC7AFF"
         id="stop21" />
      <stop
         offset="1"
         stop-color="white"
         stop-opacity="0"
         id="stop22" />
    </radialGradient>
    <radialGradient
       id="paint2_radial_1_106"
       cx="0"
       cy="0"
       r="1"
       gradientUnits="userSpaceOnUse"
       gradientTransform="translate(137.263 1097.51) rotate(3.10895) scale(865.341 413.42)">
      <stop
         stop-color="#EF98DC"
         stop-opacity="0.43"
         id="stop23" />
      <stop
         offset="1"
         stop-color="white"
         stop-opacity="0"
         id="stop24" />
    </radialGradient>
    <radialGradient
       id="paint3_radial_1_106"
       cx="0"
       cy="0"
       r="1"
       gradientUnits="userSpaceOnUse"
       gradientTransform="translate(775 745.972) rotate(156.21) scale(846.305 504.184)">
      <stop
         stop-color="#CC7AFF"
         id="stop25" />
      <stop
         offset="1"
         stop-color="white"
         stop-opacity="0"
         id="stop26" />
    </radialGradient>
    <clipPath
       id="clip0_1_106">
      <rect
         width="1000"
         height="1330"
         fill="white"
         id="rect26" />
    </clipPath>
    <rect
       x="94.849442"
       y="319.67776"
       width="562.77338"
       height="228.34125"
       id="rect27" />
  </defs>
</svg>
