<?xml version="1.0" encoding="UTF-8" standalone="no"?>
<svg
   width="1000"
   height="1330"
   viewBox="0 0 1000 1330"
   fill="none"
   version="1.1"
   id="svg26"
   sodipodi:docname="62b0e7a32dd6005e84c2ec75_Ebook Cover 1.svg"
   inkscape:version="1.3.2 (091e20e, 2023-11-25, custom)"
   xml:space="preserve"
   xmlns:inkscape="http://www.inkscape.org/namespaces/inkscape"
   xmlns:sodipodi="http://sodipodi.sourceforge.net/DTD/sodipodi-0.dtd"
   xmlns="http://www.w3.org/2000/svg"
   xmlns:svg="http://www.w3.org/2000/svg"><sodipodi:namedview
     id="namedview26"
     pagecolor="#ffffff"
     bordercolor="#000000"
     borderopacity="0.25"
     inkscape:showpageshadow="2"
     inkscape:pageopacity="0.0"
     inkscape:pagecheckerboard="0"
     inkscape:deskcolor="#d1d1d1"
     inkscape:zoom="1.006431"
     inkscape:cx="359.19006"
     inkscape:cy="515.18685"
     inkscape:window-width="2140"
     inkscape:window-height="1237"
     inkscape:window-x="286"
     inkscape:window-y="861"
     inkscape:window-maximized="0"
     inkscape:current-layer="layer1" /><g
     clip-path="url(#clip0_1_8)"
     id="g19"><rect
       width="1007"
       height="610"
       fill="#f5f6f7"
       id="rect1"
       x="0"
       y="0"
       style="display:inline" /><rect
       width="1007"
       height="610"
       fill="url(#paint0_radial_1_8)"
       id="rect2"
       x="0"
       y="0"
       style="display:inline" /><rect
       width="1007"
       height="610"
       fill="url(#paint1_radial_1_8)"
       fill-opacity="0.2"
       id="rect3"
       x="0"
       y="0"
       style="display:inline" /><rect
       x="244"
       y="711"
       width="521"
       height="482"
       fill="#f5f6f7"
       id="rect4"
       style="display:inline" /><rect
       x="244"
       y="711"
       width="521"
       height="482"
       fill="url(#paint2_radial_1_8)"
       id="rect5"
       style="display:inline" /><rect
       x="244"
       y="711"
       width="521"
       height="482"
       fill="url(#paint3_radial_1_8)"
       fill-opacity="0.5"
       id="rect6"
       style="display:inline" /><path
       fill-rule="evenodd"
       clip-rule="evenodd"
       d="m 0,574 h 1007 v 756 H 0 Z m 566,400.582 v 16.11 c 0,6.61 -2.634,12.948 -7.322,17.628 -3.96,3.94 -9.111,6.43 -14.61,7.11 -1.228,3.47 -3.21,6.67 -5.847,9.34 l -45.177,45.15 c -2.328,2.35 -5.098,4.21 -8.151,5.48 -3.053,1.28 -6.329,1.93 -9.637,1.93 -3.308,0 -6.584,-0.65 -9.637,-1.93 -3.053,-1.27 -5.823,-3.13 -8.151,-5.48 l -28.975,-28.96 c -0.108,3.15 -1.411,6.15 -3.654,8.39 -2.344,2.34 -5.524,3.65 -8.839,3.65 -3.315,0 -6.495,-1.31 -8.839,-3.65 -2.344,-2.34 -3.661,-5.51 -3.661,-8.81 v -24.92 H 291 c -6.63,0 -12.989,-2.63 -17.678,-7.3 C 268.634,1003.64 266,997.302 266,990.692 v -62.307 c 0,-6.61 2.634,-12.95 7.322,-17.624 4.689,-4.674 11.048,-7.299 17.678,-7.299 h 112.5 v -24.924 h -75 c -6.63,0 -12.989,-2.625 -17.678,-7.299 -4.688,-4.674 -7.322,-11.014 -7.322,-17.624 v -62.307 c 0,-6.61 2.634,-12.95 7.322,-17.624 4.689,-4.674 11.048,-7.299 17.678,-7.299 h 75 v -24.923 c 0,-3.305 1.317,-6.475 3.661,-8.812 2.344,-2.337 5.524,-3.65 8.839,-3.65 3.315,0 6.495,1.313 8.839,3.65 2.344,2.337 3.661,5.507 3.661,8.812 v 24.923 h 75 c 6.63,0 12.989,2.625 17.678,7.299 4.688,4.674 7.322,11.014 7.322,17.624 v 62.307 c 0,6.61 -2.634,12.95 -7.322,17.624 -4.689,4.674 -11.048,7.299 -17.678,7.299 h -75 v 24.924 h 77.407 c 0.639,-5.597 3.133,-10.852 7.128,-14.904 l 45.177,-45.143 c 2.328,-2.349 5.098,-4.214 8.151,-5.487 3.053,-1.273 6.329,-1.928 9.637,-1.928 3.308,0 6.584,0.655 9.637,1.928 3.053,1.273 5.823,3.138 8.151,5.487 l 45.177,45.143 c 4.672,4.738 7.291,11.123 7.291,17.774 0,6.652 -2.619,13.037 -7.291,17.775 l -45.177,45.143 c -2.328,2.349 -5.098,4.214 -8.151,5.487 -3.053,1.273 -6.329,1.928 -9.637,1.928 -3.308,0 -6.584,-0.655 -9.637,-1.928 -0.121,-0.051 -0.242,-0.102 -0.363,-0.155 z m 128.532,-30.499 45.177,45.143 c 4.672,4.738 7.291,11.124 7.291,17.774 0,6.65 -2.619,13.04 -7.291,17.77 l -45.177,45.15 c -2.328,2.35 -5.098,4.21 -8.151,5.48 -3.053,1.28 -6.329,1.93 -9.637,1.93 -3.308,0 -6.584,-0.65 -9.637,-1.93 -3.053,-1.27 -5.823,-3.13 -8.151,-5.48 l -45.177,-45.15 c -4.672,-4.73 -7.291,-11.12 -7.291,-17.77 0,-6.65 2.619,-13.036 7.291,-17.774 l 45.177,-45.143 c 2.328,-2.35 5.098,-4.215 8.151,-5.487 3.053,-1.273 6.329,-1.928 9.637,-1.928 3.308,0 6.584,0.655 9.637,1.928 3.053,1.272 5.823,3.137 8.151,5.487 z m -108.895,95.177 c 3.053,1.28 5.823,3.14 8.151,5.49 l 45.177,45.14 c 4.672,4.74 7.291,11.13 7.291,17.78 0,6.65 -2.619,13.03 -7.291,17.77 l -45.177,45.14 c -2.328,2.35 -5.098,4.22 -8.151,5.49 -3.053,1.27 -6.329,1.93 -9.637,1.93 -3.308,0 -6.584,-0.66 -9.637,-1.93 -3.053,-1.27 -5.823,-3.14 -8.151,-5.49 l -45.177,-45.14 c -4.672,-4.74 -7.291,-11.12 -7.291,-17.77 0,-6.65 2.619,-13.04 7.291,-17.78 l 45.177,-45.14 c 2.328,-2.35 5.098,-4.21 8.151,-5.49 3.053,-1.27 6.329,-1.92 9.637,-1.92 3.308,0 6.584,0.65 9.637,1.92 z"
       fill="#20252b"
       id="path18"
       style="display:inline"
       inkscape:label="path18" /></g><g
     inkscape:groupmode="layer"
     id="layer1"
     inkscape:label="header"
     style="display:inline"><text
       xml:space="preserve"
       id="text26"
       style="font-size:85.3333px;white-space:pre;shape-inside:url(#rect27);shape-padding:0.702588;display:inline;fill:#000000"
       transform="translate(-27.40095,-18.969889)"
       inkscape:label="title"><tspan
         x="95.552734"
         y="399.35422"
         id="tspan3"><tspan
           style="font-weight:bold;font-family:Inter;-inkscape-font-specification:'Inter Bold'"
           id="tspan1">The Phantom </tspan></tspan><tspan
         x="95.552734"
         y="507.14206"
         id="tspan5"><tspan
           style="font-weight:bold;font-family:Inter;-inkscape-font-specification:'Inter Bold'"
           id="tspan4">Series</tspan></tspan></text><text
       xml:space="preserve"
       style="font-style:normal;font-variant:normal;font-weight:normal;font-stretch:normal;font-size:119.795px;font-family:'Night At The Opera NF';-inkscape-font-specification:'Night At The Opera NF';fill:#000000;stroke:#000000;stroke-width:3.7;stroke-dasharray:none;stroke-opacity:1"
       x="166.80444"
       y="156.07394"
       id="text21"
       inkscape:label="oligarchy"><tspan
         id="tspan21"
         x="166.80444"
         y="156.07394"
         sodipodi:role="line"
         style="stroke-width:3.7;stroke-dasharray:none">Oligarchy</tspan></text><g
       id="g20"
       inkscape:label="diamonds"
       transform="matrix(0.40121961,0,0,0.40121961,-205.66063,-145.77801)"
       style="fill:#1a1a1a"><path
         style="display:inline;fill:#1a1a1a;fill-opacity:1"
         d="M 778.49355,531.08462 838.85536,636.6557 777.99674,740.73636 717.88333,636.15889 Z"
         id="path4"
         inkscape:label="inner diamond" /><path
         id="path5"
         style="display:inline;fill:#1a1a1a"
         d="M 777.92128,470.07944 682.03711,636.19336 778.3604,802.88709 874.52634,636.46178 Z M 777.80953,501.1215 855.95878,636.41071 777.9635,771.24549 700.30469,636.36914 Z"
         sodipodi:nodetypes="cccccccccc"
         inkscape:label="outer diamond" /></g></g><defs
     id="defs26"><rect
       x="94.849445"
       y="319.67776"
       width="562.77337"
       height="228.34125"
       id="rect27" /><radialGradient
       id="paint0_radial_1_8"
       cx="0"
       cy="0"
       r="1"
       gradientUnits="userSpaceOnUse"
       gradientTransform="translate(-106 489.147) rotate(2.25551) scale(1509.17 523.573)"><stop
         stop-color="#EF98CF"
         stop-opacity="0.19"
         id="stop19" /><stop
         offset="1"
         stop-color="white"
         stop-opacity="0"
         id="stop20" /></radialGradient><radialGradient
       id="paint1_radial_1_8"
       cx="0"
       cy="0"
       r="1"
       gradientUnits="userSpaceOnUse"
       gradientTransform="translate(1007 44.2595) rotate(162.272) scale(1418.88 664.213)"><stop
         stop-color="#FF837A"
         id="stop21" /><stop
         offset="1"
         stop-color="white"
         stop-opacity="0"
         id="stop22" /></radialGradient><radialGradient
       id="paint2_radial_1_8"
       cx="0"
       cy="0"
       r="1"
       gradientUnits="userSpaceOnUse"
       gradientTransform="translate(189.158 1097.51) rotate(3.44235) scale(781.617 413.282)"><stop
         stop-color="#EF98CF"
         stop-opacity="0.48"
         id="stop23" /><stop
         offset="1"
         stop-color="white"
         stop-opacity="0"
         id="stop24" /></radialGradient><radialGradient
       id="paint3_radial_1_8"
       cx="0"
       cy="0"
       r="1"
       gradientUnits="userSpaceOnUse"
       gradientTransform="translate(765 745.972) rotate(153.977) scale(778.124 495.141)"><stop
         stop-color="#FF837A"
         id="stop25" /><stop
         offset="1"
         stop-color="white"
         stop-opacity="0"
         id="stop26" /></radialGradient><clipPath
       id="clip0_1_8"><rect
         width="1000"
         height="1330"
         fill="white"
         id="rect26" /></clipPath></defs><g
     id="g3"
     transform="matrix(1.8329273,0,0,1.8329273,-1259.4677,-496.73808)"
     inkscape:label="phantom logo"><circle
       style="fill:#333333;stroke-width:1.06617"
       id="path1"
       cx="952.62152"
       cy="789.62823"
       r="151.5" /><path
       style="fill:#f9f9f9;fill-opacity:1"
       d="m 866.68625,763.62104 141.09265,62.59744 c 0,0 4.703,0.94035 7.0795,0.86941 3.6606,-0.10926 7.3864,-0.67509 10.8055,-1.98722 3.7653,-1.44499 7.197,-3.76847 10.3087,-6.33427 2.645,-2.181 4.8774,-4.84946 6.9552,-7.57627 2.6944,-3.53592 4.918,-7.41768 7.0795,-11.30232 2.3317,-4.19047 4.6416,-8.43012 6.3343,-12.91693 1.893,-5.01786 3.0653,-10.2885 4.2228,-15.52516 1.0063,-4.55238 2.1103,-9.13074 2.3599,-13.78634 0.2842,-5.30198 -0.1971,-10.64826 -0.9937,-15.89776 -0.9716,-6.40331 -2.4715,-12.76011 -4.5954,-18.8786 -1.5978,-4.60282 -3.6598,-9.06425 -6.0859,-13.28953 -2.974,-5.17962 -6.439,-10.10614 -10.3087,-14.65575 -3.3763,-3.96952 -7.1889,-7.57667 -11.1781,-10.92971 -4.1778,-3.5116 -8.5939,-6.78198 -13.2895,-9.5635 -4.4611,-2.64255 -9.2205,-4.78158 -14.0348,-6.70687 -5.45812,-2.18277 -11.03769,-4.14987 -16.76714,-5.46485 -5.94631,-1.36474 -12.03952,-2.19081 -18.13338,-2.48403 -5.17321,-0.24892 -10.37527,0.0709 -15.52516,0.62101 -5.26542,0.56247 -10.48704,1.55284 -15.64936,2.73242 -5.91535,1.35166 -11.7846,2.96533 -17.51238,4.96805 -5.9733,2.08857 -11.83733,4.52857 -17.51238,7.32788 -4.40728,2.17396 -8.68901,4.62424 -12.79273,7.32787 -4.88847,3.22064 -9.54472,6.80088 -14.03474,10.55711 -3.0333,2.53758 -5.9503,5.22496 -8.69409,8.07308 -3.82894,3.97454 -7.54705,8.09011 -10.80551,12.54433 -3.58867,4.90561 -6.714,10.15638 -9.5635,15.52516 -2.83193,5.33568 -5.44053,10.82291 -7.45208,16.51877 -1.63851,4.63956 -2.7425,9.46207 -3.72604,14.28315 -1.29676,6.3564 -2.27078,12.79037 -2.85662,19.25119 -0.55738,6.14692 -0.79725,12.33637 -0.62101,18.50599 0.16974,5.94225 0.75206,11.87902 1.61462,17.76078 1.11565,7.60764 2.34166,15.25335 4.59544,22.60463 2.4317,7.93162 5.80853,15.57967 9.5635,22.97724 3.50615,6.9074 7.41117,13.6666 12.04752,19.8722 3.35032,4.4843 7.34321,8.46299 11.30232,12.42013 1.30591,1.30527 4.09864,3.72604 4.09864,3.72604 0,0 7.2545,-3.54628 10.92971,-5.21646 5.13221,-2.3323 10.2908,-4.61385 15.52516,-6.70687 4.67024,-1.86745 9.38648,-3.6283 14.15894,-5.21645 5.77933,-1.92321 11.62047,-3.67216 17.51238,-5.21645 5.79032,-1.51766 11.62266,-2.90567 17.51238,-3.97444 5.71484,-1.03703 11.47203,-1.92594 17.26398,-2.35983 6.02813,-0.45158 18.13338,-0.2484 18.13338,-0.2484 0,0 -68.46922,-32.431 -101.34823,-51.17092 -1.53657,-0.87579 -3.18037,-1.64764 -4.47125,-2.85663 -1.27523,-1.19432 -2.22459,-2.71372 -3.10503,-4.22284 -1.57814,-2.70499 -2.79332,-5.62194 -3.85024,-8.56989 -1.11516,-3.11039 -1.89786,-6.3365 -2.60822,-9.5635 -0.74918,-3.40329 -1.27346,-6.85514 -1.73882,-10.30871 -0.49456,-3.67025 -0.89884,-7.35696 -1.11781,-11.05391 -0.13955,-2.35605 -0.1242,-7.07947 -0.1242,-7.07947 z"
       id="path2"
       sodipodi:nodetypes="ccssssssssssssssssssssssssssssssssssscsssssccsssssssc"
       inkscape:label="mask" /><path
       style="fill:#ff2a2a"
       d="m 890.30528,773.59969 c 0,0 -0.20315,6.06196 0.1242,9.0667 0.44408,4.07619 0.9694,8.24492 2.26447,12.13534 1.44485,4.34035 3.29634,8.70416 5.83746,12.50796 2.08381,3.11924 4.76585,5.93426 7.79584,8.14583 2.57381,1.87861 5.55265,3.44048 8.69408,3.97444 2.66426,0.45286 5.51864,0.13691 8.07309,-0.74521 2.88735,-0.99708 5.47976,-2.87058 7.70048,-4.96805 1.78797,-1.68874 3.14387,-3.81665 4.34704,-5.96166 1.27131,-2.26648 2.15925,-4.73828 2.98083,-7.20367 0.52698,-1.58135 1.24201,-4.84385 1.24201,-4.84385 z"
       id="path3"
       sodipodi:nodetypes="cssssssssscc"
       inkscape:label="eye" /></g></svg>
