<?xml version="1.0" encoding="UTF-8" standalone="no"?>
<!-- Created with Inkscape (http://www.inkscape.org/) -->

<svg
   width="172.33934mm"
   height="35.329536mm"
   viewBox="0 0 172.33934 35.329536"
   version="1.1"
   id="svg1"
   inkscape:version="1.3.2 (091e20e, 2023-11-25, custom)"
   sodipodi:docname="oligarchyDiamond.svg"
   xmlns:inkscape="http://www.inkscape.org/namespaces/inkscape"
   xmlns:sodipodi="http://sodipodi.sourceforge.net/DTD/sodipodi-0.dtd"
   xmlns="http://www.w3.org/2000/svg"
   xmlns:svg="http://www.w3.org/2000/svg">
  <sodipodi:namedview
     id="namedview1"
     pagecolor="#ffffff"
     bordercolor="#000000"
     borderopacity="0.25"
     inkscape:showpageshadow="2"
     inkscape:pageopacity="0.0"
     inkscape:pagecheckerboard="0"
     inkscape:deskcolor="#d1d1d1"
     inkscape:document-units="mm"
     inkscape:zoom="0.72426347"
     inkscape:cx="321.01578"
     inkscape:cy="457.70637"
     inkscape:window-width="1350"
     inkscape:window-height="1041"
     inkscape:window-x="490"
     inkscape:window-y="71"
     inkscape:window-maximized="0"
     inkscape:current-layer="layer1" />
  <defs
     id="defs1" />
  <g
     inkscape:label="Layer 1"
     inkscape:groupmode="layer"
     id="layer1"
     transform="translate(-20.026469,-27.308433)">
    <path
       d="m 66.013718,38.571168 q -2.567355,-2.567357 -6.180672,-2.567357 -3.613317,0 -6.180674,2.567357 -2.567356,2.567356 -2.567356,6.180673 0,3.613317 2.567356,6.180672 2.567357,2.567358 6.180674,2.567358 3.613317,0 6.180672,-2.567358 2.567358,-2.567355 2.567358,-6.180672 0,-3.613317 -2.567358,-6.180673 z M 53.208631,38.127427 q 2.757532,-2.757531 6.624415,-2.757531 3.866883,0 6.624413,2.757531 2.757532,2.757531 2.757532,6.624414 0,3.866883 -2.757532,6.624412 -2.75753,2.757533 -6.624413,2.757533 -3.866883,0 -6.624415,-2.757533 -2.75753,-2.757529 -2.75753,-6.624412 0,-3.866883 2.75753,-6.624414 z m 13.91444,-0.665611 q -3.042793,-3.042793 -7.290025,-3.042793 -4.247232,0 -7.290025,3.042793 -3.042793,3.011097 -3.042793,7.290025 0,4.247232 3.042793,7.290025 3.042793,3.011096 7.290025,3.011096 4.247232,0 7.290025,-3.011096 3.042793,-3.042793 3.042793,-7.290025 0,-4.278928 -3.042793,-7.290025 z m -7.290025,-3.676708 q 4.532492,0 7.733766,3.232967 3.232967,3.201272 3.232967,7.733766 0,4.500798 -3.232967,7.733765 -3.201274,3.201271 -7.733766,3.201271 -4.532495,0 -7.733765,-3.201271 -3.201273,-3.201273 -3.201273,-7.733765 0,-4.532494 3.201273,-7.733766 3.232967,-3.232967 7.733765,-3.232967 z m 8.399375,2.567356 q -3.486533,-3.486533 -8.399375,-3.486533 -4.912844,0 -8.399378,3.486533 -3.486533,3.486534 -3.486533,8.399377 0,4.912841 3.486533,8.399375 3.486534,3.486534 8.399378,3.486534 4.912842,0 8.399375,-3.486534 3.486534,-3.486534 3.486534,-8.399375 0,-4.912843 -3.486534,-8.399377 z m -17.242493,-0.44374 q 3.676708,-3.676708 8.843118,-3.676708 5.166408,0 8.843116,3.676708 3.676708,3.676708 3.676708,8.843117 0,5.166407 -3.676708,8.843116 -3.676708,3.676708 -8.843116,3.676708 -5.16641,0 -8.843118,-3.676708 -3.676708,-3.676709 -3.676708,-8.843116 0,-5.166409 3.676708,-8.843117 z M 76.219737,32.865931 H 75.268864 V 56.63775 h 9.825686 v -0.950873 h -8.874813 z m 1.553093,0 h -0.950872 v 22.218728 h 8.272592 v -0.950873 h -7.32172 z m 0.633916,-0.633915 v 21.267855 h 7.321719 v 3.771794 H 74.634949 V 32.232016 Z m 10.23776,24.405734 h 0.950873 V 32.865931 H 88.644506 Z M 91.14847,32.865931 H 90.197597 V 56.63775 h 0.950873 z m 0.633915,-0.633915 V 57.271665 H 88.010591 V 32.232016 Z m 14.801915,1.553092 v -0.919177 q -4.91284,0 -8.399374,3.486533 -3.486533,3.486534 -3.486533,8.399377 0,4.912841 3.486533,8.399375 3.486534,3.486534 8.399374,3.486534 v -0.950873 q -4.53249,0 -7.733764,-3.201271 -3.201271,-3.201273 -3.201271,-7.733765 0,-4.532494 3.201271,-7.733766 3.232964,-3.232967 7.733764,-3.232967 z m 0,1.584788 v -0.950873 q -4.24723,0 -7.290023,3.042793 -3.042793,3.011097 -3.042793,7.290025 0,3.423142 2.060225,6.180672 2.060221,2.725835 5.293191,3.676708 V 41.740744 h -0.95087 v 11.505561 q -2.44058,-1.141048 -3.961972,-3.423143 -1.489702,-2.282094 -1.489702,-5.071321 0,-3.866883 2.757533,-6.624414 2.757531,-2.757531 6.624411,-2.757531 z m 0,19.683066 v -0.919176 q -0.79239,0 -1.42631,-0.126783 V 41.740744 h -0.91918 v 13.058651 q 1.20444,0.253567 2.34549,0.253567 z m 0.63392,-19.049151 h -0.63392 q -3.61332,0 -6.18067,2.567357 -2.567358,2.567356 -2.567358,6.180673 0,2.282095 1.109353,4.278926 1.141045,1.965137 3.074485,3.169576 V 41.106828 h 3.7718 v 12.361346 q 0.41204,0.0317 1.17274,0.0317 h 0.25357 v 3.771794 h -0.63392 q -5.16641,0 -8.843114,-3.676708 -3.676709,-3.676709 -3.676709,-8.843116 0,-5.166409 3.676709,-8.843117 3.676704,-3.676708 8.843114,-3.676708 h 0.63392 z m 11.7591,13.312219 V 39.109996 q 0,-1.299527 -0.91918,-2.218704 -0.91917,-0.919177 -2.2187,-0.919177 -1.26783,0 -2.187,0.950873 -0.91918,0.919177 -0.91918,2.187008 V 49.31603 Z m 0.63392,0.602218 h -7.5119 V 39.109996 q 0,-1.553093 1.10935,-2.630748 1.10936,-1.109352 2.63075,-1.109352 1.5531,0 2.66245,1.109352 1.10935,1.077655 1.10935,2.630748 z m 0.91917,6.719502 v -5.134714 h -9.38194 v 5.134714 h 0.95087 v -4.183841 h 7.5119 v 4.183841 z m -9.98416,0 V 39.109996 q 0,-2.187008 1.55309,-3.7401 1.5531,-1.584788 3.7401,-1.584788 2.18701,0 3.7401,1.584788 1.58479,1.553092 1.58479,3.7401 V 56.63775 h 0.95087 V 39.109996 q 0,-2.599053 -1.83835,-4.437407 -1.83836,-1.838354 -4.43741,-1.838354 -2.56735,0 -4.40571,1.87005 -1.83835,1.838354 -1.83835,4.405711 V 56.63775 Z m 9.98416,-5.768629 V 39.109996 q 0,-1.933442 -1.39461,-3.296359 -1.36292,-1.394614 -3.29636,-1.394614 -1.93344,0 -3.32805,1.394614 -1.36292,1.362917 -1.36292,3.296359 v 11.759125 z m -11.56895,6.402544 V 39.109996 q 0,-2.820923 2.02853,-4.849452 2.02853,-2.060224 4.84945,-2.060224 2.85262,0 4.88115,2.060224 2.02853,2.028529 2.02853,4.849452 v 18.161669 h -3.7718 v -4.183841 h -6.24406 v 4.183841 z m 19.84155,-8.304289 q 2.09192,-0.633916 3.42314,-2.377181 1.33122,-1.774963 1.33122,-3.961971 0,-2.187006 -1.33122,-3.961969 -1.33122,-1.774963 -3.42314,-2.408878 z m -0.63392,0.792395 V 35.464983 q 2.56736,0.443741 4.27893,2.472269 1.71157,2.028529 1.71157,4.690972 0,2.630749 -1.71157,4.659278 -1.67987,2.028528 -4.27893,2.472269 z m 6.59272,6.877979 -3.26466,-6.49763 q -1.87005,1.204439 -4.27893,1.299525 v 5.198105 h 0.95087 v -4.342318 q 1.5531,-0.190175 2.94771,-0.855787 l 2.56736,5.198105 z m -2.72583,-6.846285 3.42314,6.846285 h 1.04596 l -3.26466,-6.561021 q 1.61648,-1.426311 2.53566,-3.359751 0.91917,-1.965137 0.91917,-4.088754 0,-4.025361 -2.88431,-6.877979 -2.85262,-2.884314 -6.87798,-2.884314 h -1.26783 V 56.63775 H 126.616 V 33.785108 h 0.31696 q 3.64501,0 6.21237,2.599052 2.59905,2.599053 2.59905,6.244064 0,2.123617 -0.98257,4.025362 -0.98257,1.901746 -2.72583,3.137879 z m -4.81776,1.014265 q 3.29636,-0.126783 5.57845,-2.503964 2.3138,-2.408878 2.3138,-5.673542 0,-3.296358 -2.3138,-5.67354 -2.28209,-2.377182 -5.57845,-2.535661 z m 6.08559,6.465935 -2.50397,-5.00793 q -0.95087,0.380349 -1.99683,0.570523 v 4.437407 h -3.7718 V 32.232016 h 1.90175 q 4.27893,0 7.32172,3.042793 3.07449,3.042793 3.07449,7.353415 0,2.123617 -0.88748,4.120448 -0.85579,1.996835 -2.44058,3.486534 l 3.51823,7.036459 z m 18.22506,-0.633915 v -0.950873 q -4.5325,0 -7.73377,-3.201271 -3.20127,-3.201273 -3.20127,-7.733765 0,-4.532494 3.20127,-7.733766 3.23297,-3.232967 7.73377,-3.232967 v -0.919177 q -4.91285,0 -8.39938,3.486533 -3.48653,3.486534 -3.48653,8.399377 0,4.912841 3.48653,8.399375 3.48653,3.486534 8.39938,3.486534 z m 0,-1.584788 v -0.919176 q -3.86689,0 -6.62442,-2.757533 -2.75753,-2.757529 -2.75753,-6.624412 0,-3.866883 2.75753,-6.624414 2.75753,-2.757531 6.62442,-2.757531 v -0.950873 q -4.24724,0 -7.29003,3.042793 -3.04279,3.011097 -3.04279,7.290025 0,4.247232 3.04279,7.290025 3.04279,3.011096 7.29003,3.011096 z m 0.63391,2.218703 h -0.63391 q -5.16641,0 -8.84312,-3.676708 -3.67671,-3.676709 -3.67671,-8.843116 0,-5.166409 3.67671,-8.843117 3.67671,-3.676708 8.84312,-3.676708 h 0.63391 v 3.771795 h -0.63391 q -3.61332,0 -6.18068,2.567357 -2.56735,2.567356 -2.56735,6.180673 0,3.613317 2.56735,6.180672 2.56736,2.567358 6.18068,2.567358 h 0.63391 z m 8.17748,-5.071322 h -5.80032 v 0.919179 h 4.84945 v 3.518228 h 0.95087 z m 10.55469,0 h -9.92077 v 4.437407 h 0.91918 v -3.518228 h 8.05072 v 3.518228 h 0.95087 z m -16.35501,-0.633915 h 5.80032 V 32.865931 h -0.95087 v 17.749624 h -4.84945 z m 6.43424,0 h 9.92077 V 32.865931 h -0.95087 v 17.749624 h -8.05072 V 32.865931 h -0.91918 z m 11.50556,-18.700497 h -0.95087 V 56.63775 h 0.95087 z m 0.60222,-0.633915 v 25.039649 h -3.7718 v -3.518228 h -6.78289 v 3.518228 h -3.77179 v -3.518228 h -4.84945 V 49.98164 h 4.84945 V 32.232016 h 3.77179 V 49.98164 h 6.78289 V 32.232016 Z m 3.67671,0.633915 h -1.01427 l 6.24407,16.418402 v 7.353417 h 0.95087 v -7.543591 z m 7.73376,16.418402 6.24407,-16.418402 h -1.01427 l -6.18067,16.228228 v 7.543591 h 0.95087 z m 4.56419,-16.418402 h -1.01426 l -4.81776,12.646608 -4.78606,-12.646608 h -1.01426 l 5.80032,15.277355 z m -3.93027,16.513491 v 7.892243 h -3.7718 v -7.892243 l -6.52933,-17.147406 h 4.02537 l 4.37401,11.505561 4.40571,-11.505561 h 4.02536 z"
       id="text21"
       style="font-size:119.795px;font-family:'Night At The Opera NF';-inkscape-font-specification:'Night At The Opera NF';display:inline;fill:#000000;stroke:#000000;stroke-width:0.978958"
       inkscape:label="oligarchy"
       aria-label="Oligarchy" />
    <g
       id="g20"
       inkscape:label="diamonds"
       transform="matrix(0.10615602,0,0,0.10615602,-52.375876,-22.593329)"
       style="display:inline;fill:#1a1a1a">
      <path
         style="display:inline;fill:#1a1a1a;fill-opacity:1"
         d="M 778.49355,531.08462 838.85536,636.6557 777.99674,740.73636 717.88333,636.15889 Z"
         id="path4"
         inkscape:label="inner diamond" />
      <path
         id="path5"
         style="display:inline;fill:#1a1a1a"
         d="M 777.92128,470.07944 682.03711,636.19336 778.3604,802.88709 874.52634,636.46178 Z M 777.80953,501.1215 855.95878,636.41071 777.9635,771.24549 700.30469,636.36914 Z"
         sodipodi:nodetypes="cccccccccc"
         inkscape:label="outer diamond" />
    </g>
  </g>
</svg>
