<?xml version="1.0" encoding="UTF-8" standalone="no"?>
<svg
   width="1000"
   height="1330"
   viewBox="0 0 1000 1330"
   fill="none"
   version="1.1"
   id="svg26"
   sodipodi:docname="62b0e7a32dd6005e84c2ec75_Ebook Cover 1.svg"
   inkscape:version="1.3.2 (091e20e, 2023-11-25, custom)"
   xml:space="preserve"
   xmlns:inkscape="http://www.inkscape.org/namespaces/inkscape"
   xmlns:sodipodi="http://sodipodi.sourceforge.net/DTD/sodipodi-0.dtd"
   xmlns="http://www.w3.org/2000/svg"
   xmlns:svg="http://www.w3.org/2000/svg"><sodipodi:namedview
     id="namedview26"
     pagecolor="#ffffff"
     bordercolor="#000000"
     borderopacity="0.25"
     inkscape:showpageshadow="2"
     inkscape:pageopacity="0.0"
     inkscape:pagecheckerboard="0"
     inkscape:deskcolor="#d1d1d1"
     inkscape:zoom="1.006431"
     inkscape:cx="359.19005"
     inkscape:cy="276.72041"
     inkscape:window-width="1904"
     inkscape:window-height="1041"
     inkscape:window-x="0"
     inkscape:window-y="0"
     inkscape:window-maximized="0"
     inkscape:current-layer="layer1" /><g
     clip-path="url(#clip0_1_8)"
     id="g19"><rect
       width="1007"
       height="610"
       fill="#f5f6f7"
       id="rect1"
       x="0"
       y="0"
       style="display:inline" /><rect
       width="1007"
       height="610"
       fill="url(#paint0_radial_1_8)"
       id="rect2"
       x="0"
       y="0"
       style="display:inline" /><rect
       width="1007"
       height="610"
       fill="url(#paint1_radial_1_8)"
       fill-opacity="0.2"
       id="rect3"
       x="0"
       y="0"
       style="display:inline" /><rect
       x="244"
       y="711"
       width="521"
       height="482"
       fill="#f5f6f7"
       id="rect4"
       style="display:inline" /><rect
       x="244"
       y="711"
       width="521"
       height="482"
       fill="url(#paint2_radial_1_8)"
       id="rect5"
       style="display:inline" /><rect
       x="244"
       y="711"
       width="521"
       height="482"
       fill="url(#paint3_radial_1_8)"
       fill-opacity="0.5"
       id="rect6"
       style="display:inline" /><path
       fill-rule="evenodd"
       clip-rule="evenodd"
       d="m 0,574 h 1007 v 756 H 0 Z m 566,400.582 v 16.11 c 0,6.61 -2.634,12.948 -7.322,17.628 -3.96,3.94 -9.111,6.43 -14.61,7.11 -1.228,3.47 -3.21,6.67 -5.847,9.34 l -45.177,45.15 c -2.328,2.35 -5.098,4.21 -8.151,5.48 -3.053,1.28 -6.329,1.93 -9.637,1.93 -3.308,0 -6.584,-0.65 -9.637,-1.93 -3.053,-1.27 -5.823,-3.13 -8.151,-5.48 l -28.975,-28.96 c -0.108,3.15 -1.411,6.15 -3.654,8.39 -2.344,2.34 -5.524,3.65 -8.839,3.65 -3.315,0 -6.495,-1.31 -8.839,-3.65 -2.344,-2.34 -3.661,-5.51 -3.661,-8.81 v -24.92 H 291 c -6.63,0 -12.989,-2.63 -17.678,-7.3 C 268.634,1003.64 266,997.302 266,990.692 v -62.307 c 0,-6.61 2.634,-12.95 7.322,-17.624 4.689,-4.674 11.048,-7.299 17.678,-7.299 h 112.5 v -24.924 h -75 c -6.63,0 -12.989,-2.625 -17.678,-7.299 -4.688,-4.674 -7.322,-11.014 -7.322,-17.624 v -62.307 c 0,-6.61 2.634,-12.95 7.322,-17.624 4.689,-4.674 11.048,-7.299 17.678,-7.299 h 75 v -24.923 c 0,-3.305 1.317,-6.475 3.661,-8.812 2.344,-2.337 5.524,-3.65 8.839,-3.65 3.315,0 6.495,1.313 8.839,3.65 2.344,2.337 3.661,5.507 3.661,8.812 v 24.923 h 75 c 6.63,0 12.989,2.625 17.678,7.299 4.688,4.674 7.322,11.014 7.322,17.624 v 62.307 c 0,6.61 -2.634,12.95 -7.322,17.624 -4.689,4.674 -11.048,7.299 -17.678,7.299 h -75 v 24.924 h 77.407 c 0.639,-5.597 3.133,-10.852 7.128,-14.904 l 45.177,-45.143 c 2.328,-2.349 5.098,-4.214 8.151,-5.487 3.053,-1.273 6.329,-1.928 9.637,-1.928 3.308,0 6.584,0.655 9.637,1.928 3.053,1.273 5.823,3.138 8.151,5.487 l 45.177,45.143 c 4.672,4.738 7.291,11.123 7.291,17.774 0,6.652 -2.619,13.037 -7.291,17.775 l -45.177,45.143 c -2.328,2.349 -5.098,4.214 -8.151,5.487 -3.053,1.273 -6.329,1.928 -9.637,1.928 -3.308,0 -6.584,-0.655 -9.637,-1.928 -0.121,-0.051 -0.242,-0.102 -0.363,-0.155 z m 128.532,-30.499 45.177,45.143 c 4.672,4.738 7.291,11.124 7.291,17.774 0,6.65 -2.619,13.04 -7.291,17.77 l -45.177,45.15 c -2.328,2.35 -5.098,4.21 -8.151,5.48 -3.053,1.28 -6.329,1.93 -9.637,1.93 -3.308,0 -6.584,-0.65 -9.637,-1.93 -3.053,-1.27 -5.823,-3.13 -8.151,-5.48 l -45.177,-45.15 c -4.672,-4.73 -7.291,-11.12 -7.291,-17.77 0,-6.65 2.619,-13.036 7.291,-17.774 l 45.177,-45.143 c 2.328,-2.35 5.098,-4.215 8.151,-5.487 3.053,-1.273 6.329,-1.928 9.637,-1.928 3.308,0 6.584,0.655 9.637,1.928 3.053,1.272 5.823,3.137 8.151,5.487 z m -108.895,95.177 c 3.053,1.28 5.823,3.14 8.151,5.49 l 45.177,45.14 c 4.672,4.74 7.291,11.13 7.291,17.78 0,6.65 -2.619,13.03 -7.291,17.77 l -45.177,45.14 c -2.328,2.35 -5.098,4.22 -8.151,5.49 -3.053,1.27 -6.329,1.93 -9.637,1.93 -3.308,0 -6.584,-0.66 -9.637,-1.93 -3.053,-1.27 -5.823,-3.14 -8.151,-5.49 l -45.177,-45.14 c -4.672,-4.74 -7.291,-11.12 -7.291,-17.77 0,-6.65 2.619,-13.04 7.291,-17.78 l 45.177,-45.14 c 2.328,-2.35 5.098,-4.21 8.151,-5.49 3.053,-1.27 6.329,-1.92 9.637,-1.92 3.308,0 6.584,0.65 9.637,1.92 z"
       fill="#20252b"
       id="path18"
       style="display:inline"
       inkscape:label="path18" /></g><g
     inkscape:groupmode="layer"
     id="layer1"
     inkscape:label="header"
     style="display:inline"><text
       xml:space="preserve"
       id="text26"
       style="font-size:85.3333px;white-space:pre;shape-inside:url(#rect27);shape-padding:0.702588;display:inline;fill:#000000"
       transform="translate(-27.40095,-18.969889)"
       inkscape:label="title"><tspan
         x="95.552734"
         y="399.35422"
         id="tspan6"><tspan
           style="font-weight:bold;font-family:Inter;-inkscape-font-specification:'Inter Bold'"
           id="tspan2">The Phantom </tspan></tspan><tspan
         x="95.552734"
         y="507.14206"
         id="tspan8"><tspan
           style="font-weight:bold;font-family:Inter;-inkscape-font-specification:'Inter Bold'"
           id="tspan7">Series</tspan></tspan></text><path
       d="M 241.79611,85.394895 Q 232.09272,75.6915 218.43609,75.6915 q -13.65663,0 -23.36003,9.703395 -9.70339,9.703395 -9.70339,23.360025 0,13.65663 9.70339,23.36002 9.7034,9.7034 23.36003,9.7034 13.65663,0 23.36002,-9.7034 9.7034,-9.70339 9.7034,-23.36002 0,-13.65663 -9.7034,-23.360025 z m -48.39718,-1.67713 Q 203.8211,73.2956 218.43609,73.2956 q 14.61499,0 25.03715,10.422165 10.42217,10.422165 10.42217,25.037155 0,14.61499 -10.42217,25.03715 -10.42216,10.42217 -25.03715,10.42217 -14.61499,0 -25.03716,-10.42217 -10.42216,-10.42216 -10.42216,-25.03715 0,-14.61499 10.42216,-25.037155 z m 52.59001,-2.515695 q -11.50032,-11.50032 -27.55285,-11.50032 -16.05253,0 -27.55285,11.50032 -11.50032,11.380525 -11.50032,27.55285 0,16.05253 11.50032,27.55285 11.50032,11.38052 27.55285,11.38052 16.05253,0 27.55285,-11.38052 11.50032,-11.50032 11.50032,-27.55285 0,-16.172325 -11.50032,-27.55285 z M 218.43609,67.30585 q 17.13068,0 29.22998,12.21909 12.21909,12.099295 12.21909,29.22998 0,17.01089 -12.21909,29.22998 -12.0993,12.09929 -29.22998,12.09929 -17.13069,0 -29.22998,-12.09929 -12.0993,-12.0993 -12.0993,-29.22998 0,-17.130685 12.0993,-29.22998 12.21909,-12.21909 29.22998,-12.21909 z m 31.74567,9.703395 q -13.17745,-13.177449 -31.74567,-13.177449 -18.56823,0 -31.74568,13.177449 -13.17745,13.17745 -13.17745,31.745675 0,18.56822 13.17745,31.74567 13.17745,13.17745 31.74568,13.17745 18.56822,0 31.74567,-13.17745 13.17745,-13.17745 13.17745,-31.74567 0,-18.568225 -13.17745,-31.745675 z m -65.16848,-1.67713 q 13.89622,-13.896219 33.42281,-13.896219 19.52658,0 33.4228,13.896219 13.89622,13.89622 13.89622,33.422805 0,19.52658 -13.89622,33.4228 -13.89622,13.89622 -33.4228,13.89622 -19.52659,0 -33.42281,-13.89622 -13.89622,-13.89622 -13.89622,-33.4228 0,-19.526585 13.89622,-33.422805 z m 95.35676,-11.500319 h -3.59385 v 89.846244 h 37.13645 v -3.59385 h -33.5426 z m 5.86996,0 h -3.59385 v 83.976294 h 31.26649 v -3.59385 H 286.24 Z m 2.3959,-2.3959 v 80.382444 h 27.67264 v 14.2556 H 274.38029 V 61.435896 Z m 38.6939,92.242144 h 3.59385 V 63.831796 h -3.59385 z m 9.4638,-89.846244 h -3.59385 v 89.846244 h 3.59385 z m 2.3959,-2.3959 V 156.07394 H 324.9339 V 61.435896 Z m 55.94425,5.869954 v -3.474054 q -18.56822,0 -31.74567,13.177449 -13.17745,13.17745 -13.17745,31.745675 0,18.56822 13.17745,31.74567 13.17745,13.17745 31.74567,13.17745 v -3.59385 q -17.13068,0 -29.22998,-12.09929 -12.09929,-12.0993 -12.09929,-29.22998 0,-17.130685 12.09929,-29.22998 12.21909,-12.21909 29.22998,-12.21909 z m 0,5.98975 v -3.59385 q -16.05253,0 -27.55285,11.50032 -11.50032,11.380525 -11.50032,27.55285 0,12.93786 7.78668,23.36002 7.78667,10.30237 20.00576,13.89622 V 97.374395 h -3.59385 v 43.485585 q -9.22421,-4.31262 -14.97437,-12.93786 -5.63037,-8.62524 -5.63037,-19.1672 0,-14.61499 10.42217,-25.037155 Q 380.51876,73.2956 395.13375,73.2956 Z m 0,74.39269 v -3.47405 q -2.99488,0 -5.39077,-0.47918 V 97.374395 h -3.47406 v 49.355535 q 4.55221,0.95836 8.86483,0.95836 z m 2.3959,-71.99679 h -2.3959 q -13.65663,0 -23.36002,9.703395 -9.7034,9.703395 -9.7034,23.360025 0,8.62524 4.19283,16.17232 4.31262,7.42729 11.62011,11.9795 V 94.978495 h 14.2556 v 46.720045 q 1.55734,0.1198 4.43242,0.1198 h 0.95836 v 14.2556 h -2.3959 q -19.52658,0 -33.4228,-13.89622 -13.89622,-13.89622 -13.89622,-33.4228 0,-19.526585 13.89622,-33.422805 13.89622,-13.896219 33.4228,-13.896219 h 2.3959 z m 44.44387,50.3139 V 87.43141 q 0,-4.911595 -3.47406,-8.38565 -3.47405,-3.474055 -8.38565,-3.474055 -4.7918,0 -8.26585,3.59385 -3.47406,3.474055 -3.47406,8.265855 v 38.57399 z m 2.3959,2.2761 H 415.978 V 87.43141 q 0,-5.869955 4.19283,-9.942985 4.19282,-4.192825 9.94298,-4.192825 5.86996,0 10.06278,4.192825 4.19283,4.07303 4.19283,9.942985 z m 3.47405,25.39654 v -19.40679 h -35.45932 v 19.40679 H 415.978 V 137.8651 h 28.39142 v 15.81294 z m -37.73542,0 V 87.43141 q 0,-8.265855 5.86995,-14.13581 5.86996,-5.98975 14.13581,-5.98975 8.26586,0 14.13581,5.98975 5.98975,5.869955 5.98975,14.13581 v 66.24663 h 3.59385 V 87.43141 q 0,-9.82319 -6.94811,-16.7713 -6.94811,-6.948109 -16.7713,-6.948109 -9.70339,0 -16.6515,7.067904 -6.94811,6.94811 -6.94811,16.651505 v 66.24663 z m 37.73542,-21.80269 V 87.43141 q 0,-7.307495 -5.27098,-12.45868 -5.15118,-5.27098 -12.45868,-5.27098 -7.30749,0 -12.57847,5.27098 -5.15119,5.151185 -5.15119,12.45868 v 44.44394 z M 404.1183,156.07394 V 87.43141 q 0,-10.661755 7.66688,-18.328635 7.66688,-7.786674 18.32863,-7.786674 10.78155,0 18.44843,7.786674 7.66688,7.66688 7.66688,18.328635 v 68.64253 h -14.2556 V 140.261 H 418.3739 v 15.81294 z m 74.99167,-31.38629 q 7.90647,-2.3959 12.93786,-8.98462 5.03139,-6.70852 5.03139,-14.97438 0,-8.26585 -5.03139,-14.97437 -5.03139,-6.70852 -12.93786,-9.10442 z m -2.3959,2.99488 V 73.654985 q 9.7034,1.67713 16.17233,9.34401 6.46893,7.66688 6.46893,17.729655 0,9.94299 -6.46893,17.60987 -6.34914,7.66688 -16.17233,9.34401 z m 24.91736,25.99551 -12.33888,-24.55797 q -7.06791,4.55221 -16.17233,4.91159 v 19.64638 h 3.59385 v -16.41191 q 5.86996,-0.71877 11.14094,-3.23447 l 9.70339,19.64638 z m -10.30237,-25.87572 12.93786,25.87572 h 3.95324 l -12.33889,-24.79756 q 6.10955,-5.39078 9.5836,-12.69827 3.47406,-7.42729 3.47406,-15.45356 0,-15.21396 -10.90135,-25.99551 -10.78155,-10.901344 -25.99551,-10.901344 h -4.7918 v 89.846244 h 3.59385 V 67.30585 h 1.19795 q 13.77642,0 23.47982,9.82319 9.82319,9.82319 9.82319,23.59961 0,8.02627 -3.71365,15.21397 -3.71364,7.1877 -10.30237,11.8597 z m -18.20884,3.83344 q 12.45868,-0.47918 21.08392,-9.4638 8.74504,-9.10442 8.74504,-21.44331 0,-12.458675 -8.74504,-21.4433 -8.62524,-8.984625 -21.08392,-9.5836 z m 23.00064,24.43818 -9.4638,-18.92761 q -3.59385,1.43754 -7.54709,2.15631 v 16.7713 h -14.2556 V 61.435896 h 7.1877 q 16.17232,0 27.67264,11.500319 11.62012,11.50032 11.62012,27.792435 0,8.02627 -3.35426,15.57335 -3.23447,7.54709 -9.22422,13.17745 l 13.29725,26.59449 z m 68.88212,-2.3959 v -3.59385 q -17.13068,0 -29.22998,-12.09929 -12.09929,-12.0993 -12.09929,-29.22998 0,-17.130685 12.09929,-29.22998 12.21909,-12.21909 29.22998,-12.21909 v -3.474054 q -18.56822,0 -31.74567,13.177449 -13.17745,13.17745 -13.17745,31.745675 0,18.56822 13.17745,31.74567 13.17745,13.17745 31.74567,13.17745 z m 0,-5.98975 v -3.47405 q -14.61499,0 -25.03715,-10.42217 -10.42217,-10.42216 -10.42217,-25.03715 0,-14.61499 10.42217,-25.037155 Q 550.38799,73.2956 565.00298,73.2956 v -3.59385 q -16.05253,0 -27.55285,11.50032 -11.50032,11.380525 -11.50032,27.55285 0,16.05253 11.50032,27.55285 11.50032,11.38052 27.55285,11.38052 z m 2.3959,8.38565 h -2.3959 q -19.52658,0 -33.4228,-13.89622 -13.89622,-13.89622 -13.89622,-33.4228 0,-19.526585 13.89622,-33.422805 13.89622,-13.896219 33.4228,-13.896219 h 2.3959 V 75.6915 h -2.3959 q -13.65663,0 -23.36002,9.703395 -9.7034,9.703395 -9.7034,23.360025 0,13.65663 9.7034,23.36002 9.70339,9.7034 23.36002,9.7034 h 2.3959 z m 30.90702,-19.1672 h -21.92248 v 3.47406 h 18.32863 v 13.29724 h 3.59385 z m 39.89174,0 H 600.7018 v 16.7713 h 3.47406 V 140.3808 h 30.42793 v 13.29724 h 3.59385 z m -61.81422,-2.3959 H 598.3059 V 63.831796 h -3.59385 v 67.085194 h -18.32863 z m 24.31838,0 h 37.49584 V 63.831796 h -3.59385 V 130.91699 H 604.17586 V 63.831796 h -3.47406 z m 43.48559,-70.679044 h -3.59385 v 89.846244 h 3.59385 z m 2.2761,-2.3959 v 94.638044 h -14.2556 V 142.7767 h -25.63613 v 13.29724 H 592.31615 V 142.7767 h -18.32863 v -14.25561 h 18.32863 V 61.435896 h 14.25561 v 67.085194 h 25.63613 V 61.435896 Z m 13.89622,2.3959 h -3.83344 l 23.59961,62.053804 v 27.79244 h 3.59385 V 125.16683 Z M 689.58969,125.8856 713.1893,63.831796 h -3.83344 l -23.36002,61.335034 v 28.51121 h 3.59385 z m 17.25048,-62.053804 h -3.83344 L 684.79789,111.63 666.70884,63.831796 h -3.83344 l 21.92249,57.741184 z m -14.85458,62.413194 v 29.82895 H 677.72998 V 126.24499 L 653.05221,61.435896 h 15.21397 l 16.53171,43.485584 16.6515,-43.485584 h 15.21397 z"
       id="text21"
       style="font-size:119.795px;font-family:'Night At The Opera NF';-inkscape-font-specification:'Night At The Opera NF';fill:#000000;stroke:#000000;stroke-width:3.7"
       inkscape:label="oligarchy"
       aria-label="Oligarchy" /><g
       id="g20"
       inkscape:label="diamonds"
       transform="matrix(0.40121961,0,0,0.40121961,-205.66063,-145.77801)"
       style="fill:#1a1a1a"><path
         style="display:inline;fill:#1a1a1a;fill-opacity:1"
         d="M 778.49355,531.08462 838.85536,636.6557 777.99674,740.73636 717.88333,636.15889 Z"
         id="path4"
         inkscape:label="inner diamond" /><path
         id="path5"
         style="display:inline;fill:#1a1a1a"
         d="M 777.92128,470.07944 682.03711,636.19336 778.3604,802.88709 874.52634,636.46178 Z M 777.80953,501.1215 855.95878,636.41071 777.9635,771.24549 700.30469,636.36914 Z"
         sodipodi:nodetypes="cccccccccc"
         inkscape:label="outer diamond" /></g></g><defs
     id="defs26"><rect
       x="94.849445"
       y="319.67776"
       width="562.77337"
       height="228.34125"
       id="rect27" /><radialGradient
       id="paint0_radial_1_8"
       cx="0"
       cy="0"
       r="1"
       gradientUnits="userSpaceOnUse"
       gradientTransform="translate(-106 489.147) rotate(2.25551) scale(1509.17 523.573)"><stop
         stop-color="#EF98CF"
         stop-opacity="0.19"
         id="stop19" /><stop
         offset="1"
         stop-color="white"
         stop-opacity="0"
         id="stop20" /></radialGradient><radialGradient
       id="paint1_radial_1_8"
       cx="0"
       cy="0"
       r="1"
       gradientUnits="userSpaceOnUse"
       gradientTransform="translate(1007 44.2595) rotate(162.272) scale(1418.88 664.213)"><stop
         stop-color="#FF837A"
         id="stop21" /><stop
         offset="1"
         stop-color="white"
         stop-opacity="0"
         id="stop22" /></radialGradient><radialGradient
       id="paint2_radial_1_8"
       cx="0"
       cy="0"
       r="1"
       gradientUnits="userSpaceOnUse"
       gradientTransform="translate(189.158 1097.51) rotate(3.44235) scale(781.617 413.282)"><stop
         stop-color="#EF98CF"
         stop-opacity="0.48"
         id="stop23" /><stop
         offset="1"
         stop-color="white"
         stop-opacity="0"
         id="stop24" /></radialGradient><radialGradient
       id="paint3_radial_1_8"
       cx="0"
       cy="0"
       r="1"
       gradientUnits="userSpaceOnUse"
       gradientTransform="translate(765 745.972) rotate(153.977) scale(778.124 495.141)"><stop
         stop-color="#FF837A"
         id="stop25" /><stop
         offset="1"
         stop-color="white"
         stop-opacity="0"
         id="stop26" /></radialGradient><clipPath
       id="clip0_1_8"><rect
         width="1000"
         height="1330"
         fill="white"
         id="rect26" /></clipPath></defs><g
     id="g3"
     transform="matrix(1.8329273,0,0,1.8329273,-1259.4677,-496.73808)"
     inkscape:label="phantom logo"><circle
       style="fill:#333333;stroke-width:1.06617"
       id="path1"
       cx="952.62152"
       cy="789.62823"
       r="151.5" /><path
       style="fill:#f9f9f9;fill-opacity:1"
       d="m 866.68625,763.62104 141.09265,62.59744 c 0,0 4.703,0.94035 7.0795,0.86941 3.6606,-0.10926 7.3864,-0.67509 10.8055,-1.98722 3.7653,-1.44499 7.197,-3.76847 10.3087,-6.33427 2.645,-2.181 4.8774,-4.84946 6.9552,-7.57627 2.6944,-3.53592 4.918,-7.41768 7.0795,-11.30232 2.3317,-4.19047 4.6416,-8.43012 6.3343,-12.91693 1.893,-5.01786 3.0653,-10.2885 4.2228,-15.52516 1.0063,-4.55238 2.1103,-9.13074 2.3599,-13.78634 0.2842,-5.30198 -0.1971,-10.64826 -0.9937,-15.89776 -0.9716,-6.40331 -2.4715,-12.76011 -4.5954,-18.8786 -1.5978,-4.60282 -3.6598,-9.06425 -6.0859,-13.28953 -2.974,-5.17962 -6.439,-10.10614 -10.3087,-14.65575 -3.3763,-3.96952 -7.1889,-7.57667 -11.1781,-10.92971 -4.1778,-3.5116 -8.5939,-6.78198 -13.2895,-9.5635 -4.4611,-2.64255 -9.2205,-4.78158 -14.0348,-6.70687 -5.45812,-2.18277 -11.03769,-4.14987 -16.76714,-5.46485 -5.94631,-1.36474 -12.03952,-2.19081 -18.13338,-2.48403 -5.17321,-0.24892 -10.37527,0.0709 -15.52516,0.62101 -5.26542,0.56247 -10.48704,1.55284 -15.64936,2.73242 -5.91535,1.35166 -11.7846,2.96533 -17.51238,4.96805 -5.9733,2.08857 -11.83733,4.52857 -17.51238,7.32788 -4.40728,2.17396 -8.68901,4.62424 -12.79273,7.32787 -4.88847,3.22064 -9.54472,6.80088 -14.03474,10.55711 -3.0333,2.53758 -5.9503,5.22496 -8.69409,8.07308 -3.82894,3.97454 -7.54705,8.09011 -10.80551,12.54433 -3.58867,4.90561 -6.714,10.15638 -9.5635,15.52516 -2.83193,5.33568 -5.44053,10.82291 -7.45208,16.51877 -1.63851,4.63956 -2.7425,9.46207 -3.72604,14.28315 -1.29676,6.3564 -2.27078,12.79037 -2.85662,19.25119 -0.55738,6.14692 -0.79725,12.33637 -0.62101,18.50599 0.16974,5.94225 0.75206,11.87902 1.61462,17.76078 1.11565,7.60764 2.34166,15.25335 4.59544,22.60463 2.4317,7.93162 5.80853,15.57967 9.5635,22.97724 3.50615,6.9074 7.41117,13.6666 12.04752,19.8722 3.35032,4.4843 7.34321,8.46299 11.30232,12.42013 1.30591,1.30527 4.09864,3.72604 4.09864,3.72604 0,0 7.2545,-3.54628 10.92971,-5.21646 5.13221,-2.3323 10.2908,-4.61385 15.52516,-6.70687 4.67024,-1.86745 9.38648,-3.6283 14.15894,-5.21645 5.77933,-1.92321 11.62047,-3.67216 17.51238,-5.21645 5.79032,-1.51766 11.62266,-2.90567 17.51238,-3.97444 5.71484,-1.03703 11.47203,-1.92594 17.26398,-2.35983 6.02813,-0.45158 18.13338,-0.2484 18.13338,-0.2484 0,0 -68.46922,-32.431 -101.34823,-51.17092 -1.53657,-0.87579 -3.18037,-1.64764 -4.47125,-2.85663 -1.27523,-1.19432 -2.22459,-2.71372 -3.10503,-4.22284 -1.57814,-2.70499 -2.79332,-5.62194 -3.85024,-8.56989 -1.11516,-3.11039 -1.89786,-6.3365 -2.60822,-9.5635 -0.74918,-3.40329 -1.27346,-6.85514 -1.73882,-10.30871 -0.49456,-3.67025 -0.89884,-7.35696 -1.11781,-11.05391 -0.13955,-2.35605 -0.1242,-7.07947 -0.1242,-7.07947 z"
       id="path2"
       sodipodi:nodetypes="ccssssssssssssssssssssssssssssssssssscsssssccsssssssc"
       inkscape:label="mask" /><path
       style="fill:#ff2a2a"
       d="m 890.30528,773.59969 c 0,0 -0.20315,6.06196 0.1242,9.0667 0.44408,4.07619 0.9694,8.24492 2.26447,12.13534 1.44485,4.34035 3.29634,8.70416 5.83746,12.50796 2.08381,3.11924 4.76585,5.93426 7.79584,8.14583 2.57381,1.87861 5.55265,3.44048 8.69408,3.97444 2.66426,0.45286 5.51864,0.13691 8.07309,-0.74521 2.88735,-0.99708 5.47976,-2.87058 7.70048,-4.96805 1.78797,-1.68874 3.14387,-3.81665 4.34704,-5.96166 1.27131,-2.26648 2.15925,-4.73828 2.98083,-7.20367 0.52698,-1.58135 1.24201,-4.84385 1.24201,-4.84385 z"
       id="path3"
       sodipodi:nodetypes="cssssssssscc"
       inkscape:label="eye" /></g></svg>
